# xmcd
#
# Track frame offsets: 
#        150
#        11108
#        23467
#        35874
#        66646
#        78074
#        90789
#        103391
#        116135
#        133343
#        144103
#
# Disc length: 2018 seconds
#
# Revision: 0
# Processed by: cddbd v1.5.2PL0 Copyright (c) Steve Scherf et al.
# Submitted via: ExactAudioCopy v1.0b3
#
DISCID=9107e00b
DTITLE=Mark Brine - I'm Not Anyone: The Nashville Sessions
DYEAR=2005
DGENRE=Americana
TTITLE0=I'm Not Anyone
TTITLE1=Hello Lady
TTITLE2=It's Me
TTITLE3=Lord Sellin' Preacher
TTITLE4=Words
TTITLE5=Comin' Home To Love
TTITLE6=That's When You'll Want Me Back Again
TTITLE7=How Come We Can't Live Together
TTITLE8=Mr. Marty
TTITLE9=Dreams ('Nother One Of Them Dreams)
TTITLE10=Point Of No Return
EXTD=
EXTT0=
EXTT1=
EXTT2=
EXTT3=
EXTT4=
EXTT5=
EXTT6=
EXTT7=
EXTT8=
EXTT9=
EXTT10=
PLAYORDER=
